<svg width="1205" height="431" viewBox="0 0 1205 431" fill="none" xmlns="http://www.w3.org/2000/svg">
<path d="M85.5499 1.98595C58.5014 8.4035 36.7624 25.026 28.9484 45.1203C26.7444 50.8014 26.5441 67.1083 28.4475 75.4195C31.4529 88.0442 39.3671 101.3 50.1865 112.136C56.598 118.449 65.9147 124.971 70.5229 126.234C75.4317 127.707 77.9362 131.284 79.2386 138.753L80.4407 145.381L77.5355 147.801C75.8324 149.169 71.124 152.851 67.0166 156.112C50.0863 169.368 40.6694 179.468 30.3509 195.67C23.739 206.085 2.60113 250.797 0.797893 257.951C-0.804981 265 0.0966355 280.045 2.70131 286.041C3.7031 288.671 6.00723 293.827 7.71029 297.614C11.9178 307.188 13.7211 311.922 16.0252 319.181C18.2292 326.23 23.9394 338.329 30.8518 350.638C42.8733 372.1 65.9147 395.771 87.5535 408.922C92.7628 412.078 107.89 419.653 108.992 419.653C109.393 419.653 111.096 420.389 112.699 421.231C117.006 423.44 138.244 428.805 148.863 430.278C158.581 431.541 177.715 431.12 195.247 429.226C207.969 427.859 226.202 422.809 236.02 418.074C243.233 414.603 257.158 406.397 258.36 404.924C258.66 404.503 261.165 402.714 263.87 400.716C271.583 395.245 287.813 378.202 295.827 367.05C307.247 351.269 313.959 338.855 319.67 323.389C324.679 309.923 326.181 306.977 330.89 300.244C337.401 291.196 339.405 286.041 340.106 276.257C341.308 261.844 337.702 250.903 328.085 239.33C325.18 235.858 320.07 227.547 316.865 221.024C313.559 214.501 307.648 204.612 303.741 199.036C299.734 193.355 296.428 188.2 296.428 187.464C296.428 186.727 297.73 184.623 299.233 182.729C302.739 178.416 304.843 174.629 307.448 167.264C309.151 162.635 309.552 159.163 309.552 149.169C309.552 124.866 303.24 112.136 280.6 91.516C276.092 87.3078 270.582 81.2058 268.478 77.9445C261.265 66.7927 251.548 58.5866 238.123 52.0639C229.408 47.8556 224.299 46.3828 203.762 42.3849C189.436 39.5444 179.719 35.1257 171.404 27.5509C155.175 12.8221 141.751 5.24733 125.622 1.88075C113.801 -0.644192 96.2691 -0.644192 85.5499 1.98595ZM127.225 15.2419C131.232 16.7147 135.54 18.1876 136.641 18.5032C137.743 18.8189 140.548 20.5022 142.853 22.1854C145.157 23.7635 147.261 25.1312 147.561 25.1312C147.862 25.1312 153.772 29.5498 160.584 34.8101C171.203 43.1214 176.814 46.8036 186.331 51.5378C187.332 51.9587 193.343 53.3263 199.855 54.5888C225.701 59.4283 233.716 62.374 244.735 71.1061C250.746 75.9456 253.351 78.7861 261.365 89.8327C263.269 92.5681 268.478 97.7231 272.886 101.405C292.521 117.923 300.736 135.702 298.432 156.638C297.029 169.684 290.517 178.205 280.099 180.73C273.587 182.414 248.943 181.888 247.24 180.099C246.338 179.152 246.338 175.575 247.24 164.844C248.542 147.801 248.943 146.118 251.648 146.118C253.751 146.118 259.362 150.116 263.168 154.534C266.875 158.637 273.687 162.951 276.492 162.951C279.898 162.951 281.401 161.162 281.401 156.744C281.401 152.43 278.396 147.906 270.181 139.805C266.975 136.649 264.371 133.703 264.371 133.177C264.371 132.757 265.673 132.441 267.276 132.441C270.782 132.441 277.194 136.123 284.406 142.436C292.22 149.169 292.922 148.748 289.516 139.174C283.405 122.446 270.682 106.666 257.859 100.143C248.642 95.4086 242.632 94.2513 230.911 94.8826C224.8 95.1982 217.987 96.0398 215.783 96.7763C213.579 97.4075 205.465 98.0388 197.751 98.144C186.03 98.2492 182.924 97.9335 178.717 96.2503C171.003 93.0941 161.787 86.3609 149.565 74.9987C138.244 64.4781 133.035 59.6387 125.421 53.2211C123.117 51.2222 120.412 48.8025 119.511 47.8556C114.802 42.911 112.899 49.3285 115.604 60.7959C119.511 76.7872 120.513 79.8382 128.226 98.7752C131.933 107.823 144.455 120.342 155.175 125.813C163.69 130.232 172.005 132.441 179.719 132.441C185.329 132.441 194.545 135.071 201.758 138.648C212.477 144.014 213.579 144.329 225.3 144.96L236.821 145.592L236.721 160.952C236.521 179.363 235.819 181.362 230.51 180.31C228.406 179.994 223.698 178.416 219.791 177.048C215.984 175.575 209.672 173.471 205.765 172.209C201.959 171.052 195.347 168.947 191.239 167.58C187.032 166.317 181.021 164.634 177.715 164.003C174.409 163.477 168.799 162.214 165.193 161.373C154.173 158.637 139.947 155.586 133.235 154.534C129.729 153.903 126.523 153.167 126.022 152.956C125.622 152.641 118.709 151.904 110.795 151.483C102.881 150.957 95.4677 150.01 94.3657 149.379C91.8612 148.011 90.058 143.067 90.058 137.596C90.058 135.387 89.3567 129.706 88.5553 125.077C87.7538 120.448 86.3513 112.873 85.5499 108.244C83.4461 96.5659 83.5463 93.8305 86.1509 92.3576C87.854 91.516 89.2565 91.516 92.1617 92.3576C95.0669 93.3045 110.895 95.4086 116.405 95.619C118.509 95.619 116.305 90.0431 109.192 76.8924C91.6608 44.6995 90.2583 40.0704 96.2691 32.9164C97.9721 30.8123 101.879 27.7613 104.784 25.9729C110.194 22.8167 112.298 19.0293 107.89 20.3969C101.579 22.3959 92.0615 28.2874 87.4533 33.1268C80.1402 40.7016 78.0364 45.9619 78.0364 57.1137C78.0364 62.0584 77.6357 66.2666 77.235 66.5823C75.5319 67.6343 70.2224 60.7959 66.6159 52.9055C64.5121 48.5921 62.4084 45.1203 61.8073 45.3307C60.0041 45.9619 58.0005 54.5888 58.0005 61.4272C58.0005 69.2124 60.3046 77.3132 63.4102 80.8902C66.2152 84.0464 69.0202 88.465 69.0202 89.5171C69.0202 90.7796 64.3118 90.5691 59.9039 89.0963C57.6999 88.465 55.6963 88.2546 55.1954 88.6754C54.1936 89.8327 60.8055 95.5138 66.7161 98.7752C73.4281 102.352 75.031 104.667 74.7305 109.822C74.5301 113.504 74.2296 114.03 71.9254 114.346C67.0166 114.977 51.1883 99.8273 45.3778 88.8859C38.9663 76.7872 38.6658 75.7351 38.5656 63.0053L38.4654 50.9066L42.1721 44.4891C51.4888 28.603 71.6249 15.9783 93.5642 12.4013C102.781 10.9284 119.01 12.2961 127.225 15.2419ZM111.797 156.849C112.699 157.901 113.3 158.848 112.999 159.163C112.799 159.374 109.192 159.9 105.085 160.321C96.77 161.057 93.1635 159.689 94.3657 156.112C94.9668 154.534 96.1689 154.324 102.58 154.745C107.89 154.955 110.595 155.586 111.797 156.849ZM81.9434 164.108C83.6465 169.368 83.2457 173.892 80.6411 177.89C74.7305 187.043 75.1312 206.085 81.5427 219.867C85.9506 229.441 89.5571 234.07 95.9686 238.594C101.478 242.381 101.579 242.591 103.382 250.271C104.283 254.585 106.688 263.422 108.691 269.945C110.695 276.362 112.097 282.464 111.897 283.516C111.697 284.568 108.992 286.988 105.686 288.882C98.473 293.195 93.965 297.088 92.1617 300.56C91.4605 302.033 90.5589 307.188 90.2583 312.027C89.7574 320.233 89.5571 320.97 87.1527 322.232C85.7502 323.074 74.0292 327.387 61.2062 331.911C35.2597 341.169 35.9609 341.064 32.3545 333.279C26.7444 320.97 24.9412 316.551 23.8392 311.712C23.2381 308.871 20.0324 300.56 16.7265 293.195C9.41334 276.783 8.21119 270.155 10.916 260.371C11.9178 256.689 13.9214 251.323 15.3239 248.588C19.4313 240.382 23.6389 231.229 25.5423 226.074C26.5441 223.444 27.9466 220.603 28.6478 219.657C29.3491 218.815 29.9502 217.447 29.9502 216.711C29.9502 215.974 31.6532 212.818 33.757 209.557C35.7606 206.401 38.1649 202.718 38.9663 201.351C46.9807 188.305 74.5301 160.847 79.5391 160.847C80.2403 160.847 81.3423 162.319 81.9434 164.108ZM146.159 169.263C155.275 169.894 166.094 171.052 170.202 171.998C186.13 175.47 193.043 177.259 200.256 179.784L207.769 182.414L208.27 191.461C208.771 199.773 209.071 200.93 212.678 206.401C216.284 211.871 216.485 212.608 215.383 215.238C214.681 216.711 213.78 223.234 213.179 229.651C211.476 250.587 208.771 262.58 204.062 269.524C196.248 281.307 183.425 293.195 173.708 297.614C171.003 298.876 167.196 300.56 165.393 301.401C163.59 302.243 159.583 302.874 156.477 302.874C151.969 302.874 149.665 302.138 144.756 299.297C131.532 291.407 118.208 272.154 114.001 254.48C112.699 249.009 108.491 224.706 107.088 214.501C105.686 204.507 103.582 191.146 102.58 187.148C102.08 184.939 103.081 183.361 109.292 176.838C113.3 172.63 117.307 168.737 118.108 168.211C118.91 167.685 121.915 167.475 124.62 167.685C127.425 168.001 137.042 168.737 146.159 169.263ZM93.8648 184.623C95.0669 185.465 96.0687 187.148 96.0687 188.41C96.0687 190.094 95.668 190.409 93.8648 189.883C92.5624 189.568 90.7592 189.252 89.8576 189.252C88.6554 189.252 88.0544 188.41 88.0544 186.832C88.0544 182.624 90.058 181.782 93.8648 184.623ZM91.0597 193.46C94.1653 195.144 95.3675 198.615 95.5678 206.085C95.668 209.872 96.4694 214.607 97.3711 216.606C99.7754 222.181 100.076 224.391 98.9739 226.074C98.1725 227.337 97.4712 226.916 94.566 223.549C92.6626 221.235 90.659 217.973 90.1581 216.185C89.5571 214.396 88.2547 210.083 87.1527 206.716C85.049 200.509 84.4479 194.407 85.7502 193.145C86.6518 192.093 88.8558 192.198 91.0597 193.46ZM287.813 196.09C291.118 199.562 301.738 213.975 304.142 218.184C304.743 219.341 307.147 224.18 309.451 228.915C311.856 233.544 316.364 240.908 319.57 245.222C328.385 256.899 330.79 262.686 330.89 272.891C330.89 282.359 329.087 287.199 322.976 294.247C319.369 298.456 315.963 305.61 311.856 317.813C306.045 334.646 299.534 346.009 295.727 346.009C293.924 346.009 249.544 330.333 246.138 328.544C243.032 326.861 242.632 325.073 242.03 310.133C241.53 297.719 239.326 292.775 232.814 289.303C230.51 288.145 228.005 287.093 227.404 287.093C224.699 287.093 218.288 282.675 217.787 280.465C216.585 275.731 220.492 257.531 223.397 253.743C223.998 253.007 225.2 252.376 226.002 252.376C232.614 252.376 247.039 239.225 251.948 228.599C254.353 223.444 254.853 220.709 255.154 212.608C255.354 207.347 255.054 201.456 254.453 199.773C252.549 193.881 253.651 193.145 262.768 193.881C267.276 194.197 272.685 194.092 274.889 193.566C282.403 191.882 284.106 192.198 287.813 196.09ZM243.132 199.247C246.038 202.613 246.338 203.455 246.338 209.557C246.338 214.922 245.737 217.552 243.233 222.813C239.726 230.177 231.612 239.33 227.605 240.382C223.898 241.434 219.891 239.646 219.49 236.805C219.19 234.911 219.791 234.385 222.195 233.859C225.701 233.123 230.009 228.389 230.911 224.391C231.311 222.708 230.71 219.762 229.107 216.08L226.603 210.293L223.798 213.449C219.991 217.552 218.288 217.552 218.288 213.134C218.288 209.452 221.293 202.824 224.599 198.931C229.408 193.46 238.023 193.671 243.132 199.247ZM210.674 286.252C211.476 289.724 211.375 318.971 210.474 320.338C209.372 322.127 204.864 324.231 192.442 328.755C174.91 335.067 171.203 339.486 171.203 354.109C171.203 363.157 169.901 366.524 166.595 365.787C164.992 365.472 164.592 363.999 163.59 354.425C162.187 340.117 161.787 338.539 158.581 335.067C155.876 332.332 148.162 328.124 145.658 328.124C144.956 328.124 141.45 326.756 137.944 325.178C134.538 323.495 130.531 321.811 129.128 321.496C127.725 321.18 125.121 319.392 123.318 317.708L120.012 314.447L120.513 304.768C120.813 299.402 121.114 294.668 121.114 294.142C121.114 293.721 122.015 293.406 123.017 293.406C125.021 293.406 135.139 303.821 138.144 308.976C143.454 318.024 153.271 322.863 162.187 320.864C175.11 317.919 192.442 304.558 204.163 288.356C207.769 283.411 209.773 282.78 210.674 286.252ZM223.097 299.928C224.699 301.612 224.599 303.505 222.696 306.662C220.592 309.923 218.288 308.345 218.288 303.4C218.288 298.666 220.392 297.088 223.097 299.928ZM114.101 305.084C114.101 308.45 112.498 308.766 110.695 305.82C109.994 304.558 110.094 303.611 110.995 302.453C112.799 300.139 114.101 301.296 114.101 305.084ZM109.092 316.025C115.504 323.389 127.725 330.754 142.051 336.119C152.27 339.907 153.472 341.169 153.973 349.48C154.473 356.95 153.371 359.685 150.166 359.685C148.563 359.685 130.33 351.479 124.119 347.902C117.808 344.325 110.194 338.434 106.187 334.12C102.08 329.596 101.779 328.965 101.278 321.916C100.577 310.765 102.881 308.976 109.092 316.025ZM231.912 315.078C232.313 316.551 232.313 321.18 232.013 325.283C231.512 332.753 231.512 332.858 226.703 337.487C216.084 347.481 194.746 358.633 182.624 360.422C179.118 360.948 178.216 360.632 177.314 358.844C175.812 355.898 177.014 347.587 179.418 344.431C181.422 341.8 189.236 337.592 192.141 337.592C193.043 337.592 195.046 336.856 196.649 336.014C198.152 335.172 199.855 334.436 200.356 334.436C200.857 334.436 204.764 332.753 208.971 330.649C214.982 327.703 218.288 325.178 223.297 319.602C226.903 315.709 230.109 312.448 230.51 312.448C230.911 312.343 231.612 313.605 231.912 315.078ZM246.338 339.17C248.041 340.117 249.344 341.485 249.344 342.221C249.344 343.799 243.032 349.375 239.927 350.638C238.925 350.953 238.324 351.584 238.624 352.005C239.326 352.742 251.948 346.429 252.85 344.957C254.453 342.221 268.378 346.114 283.705 353.373C289.516 356.108 289.816 358.738 285.208 364.63C283.405 366.945 280.299 370.837 278.396 373.362C271.884 381.884 252.85 398.085 241.83 404.503C228.506 412.288 220.392 415.129 218.889 412.393C218.488 411.867 217.587 407.449 216.785 402.609C215.182 392.825 213.279 387.986 209.873 385.145C207.869 383.567 201.257 380.621 185.529 374.309C184.227 373.783 183.225 372.52 183.225 371.468C183.225 369.364 185.329 368.102 194.746 364.735C206.266 360.527 221.093 352.531 230.81 345.062C236.22 340.959 241.229 337.592 242.03 337.592C242.832 337.592 244.735 338.329 246.338 339.17ZM147.16 367.365C152.37 369.364 160.985 372.731 166.194 374.94C171.404 377.149 179.318 380.411 183.726 382.094C196.749 387.144 200.055 388.933 204.764 393.456C207.168 395.771 209.672 399.348 210.274 401.347C211.776 405.976 210.774 411.973 208.27 413.34C205.064 415.129 203.561 413.551 202.96 407.87C202.259 401.557 200.456 399.137 194.245 396.402C191.74 395.245 188.535 393.667 187.032 392.825C185.629 391.983 183.626 391.247 182.724 391.247C181.823 391.247 179.819 390.511 178.416 389.774C175.11 387.88 170.302 385.776 163.69 383.357C160.985 382.41 156.477 380.411 153.672 379.148C150.967 377.781 145.958 375.782 142.652 374.625C133.536 371.363 127.625 367.786 127.325 365.261C126.724 360.948 131.833 361.474 147.16 367.365Z" fill="#3E8446"/>
<path d="M127.124 179.152C121.615 180.73 118.309 182.519 115.403 185.359C111.897 188.621 112.598 191.251 116.606 190.304C117.207 190.199 121.214 189.462 125.522 188.621C134.137 187.043 138.144 184.939 138.144 181.993C138.144 180.941 137.042 179.573 135.64 178.942C132.634 177.469 132.935 177.469 127.124 179.152Z" fill="#3E8446"/>
<path d="M169.5 179.889C167.497 182.098 167.998 185.885 170.502 187.569C171.704 188.305 175.812 189.252 179.619 189.673C183.325 189.988 187.933 190.83 189.837 191.567C197.751 194.512 195.948 187.148 187.533 182.203C182.524 179.363 171.304 177.89 169.5 179.889Z" fill="#3E8446"/>
<path d="M126.022 197.984C124.119 199.352 122.616 201.246 122.616 202.403C122.616 204.296 123.217 204.507 127.325 204.191C129.929 203.981 133.836 204.402 135.84 204.928C140.348 206.295 141.751 204.717 139.346 201.246C137.743 198.931 132.434 195.564 130.33 195.564C129.829 195.564 127.926 196.616 126.022 197.984Z" fill="#3E8446"/>
<path d="M178.416 199.773C172.105 203.77 173.007 207.768 179.819 205.98C183.025 205.138 184.728 205.243 187.633 206.506C189.737 207.453 191.84 207.874 192.341 207.663C193.844 206.611 191.039 201.877 187.733 199.773C183.726 197.143 182.524 197.143 178.416 199.773Z" fill="#3E8446"/>
<path d="M147.561 206.821C147.16 208.505 145.357 214.712 143.554 220.814C136.141 244.906 138.244 251.955 152.47 251.639C162.889 251.323 170.202 246.589 170.202 240.172C170.202 235.227 167.797 234.911 163.59 239.225C160.685 242.276 159.382 242.907 155.776 242.907C148.062 242.907 145.658 236.595 148.563 223.654C150.366 215.659 150.667 203.981 149.164 203.981C148.663 203.981 147.862 205.243 147.561 206.821Z" fill="#3E8446"/>
<path d="M135.64 258.688C134.538 260.582 141.35 272.259 145.357 275.31C149.464 278.467 153.973 280.781 155.976 280.781C162.087 280.781 174.81 270.787 178.717 262.896C180.62 259.003 179.518 258.688 172.205 260.476C163.79 262.58 150.566 262.265 143.153 259.74C135.84 257.32 136.441 257.32 135.64 258.688ZM167.597 268.998C167.898 269.524 167.497 270.892 166.695 272.049C164.992 274.574 157.178 276.152 152.169 274.995C149.064 274.258 146.559 271.102 147.661 269.208C148.363 267.946 166.896 267.841 167.597 268.998Z" fill="#3E8446"/>
<path d="M232.012 205.664C230.41 207.348 231.512 208.294 234.617 207.979C236.32 207.768 237.723 207.137 237.623 206.611C237.322 205.349 233.014 204.612 232.012 205.664Z" fill="#3E8446"/>
<path d="M500.093 125.287C497.589 128.233 494.784 133.914 494.784 136.123C494.784 138.859 497.489 139.069 500.694 136.754C502.998 134.966 504.201 134.756 506.104 135.492C507.507 136.123 508.909 137.07 509.31 137.596C510.312 139.279 513.517 138.964 514.219 137.07C515.521 133.598 508.108 122.973 504.401 122.973C503.199 122.973 501.195 124.025 500.093 125.287Z" fill="#3E8446"/>
<path d="M798.128 126.023C791.015 134.756 792.618 142.436 800.332 136.544L803.137 134.23L806.342 136.649C813.655 142.12 814.657 133.914 807.545 125.813C804.239 122.131 801.133 122.236 798.128 126.023Z" fill="#3E8446"/>
<path d="M492.68 154.85C480.658 161.373 477.753 169.473 477.753 196.827C477.753 213.66 477.853 214.502 480.057 217.237C484.465 222.602 488.773 218.079 488.773 208.189C488.773 200.299 489.675 199.773 504.701 199.773C513.217 199.773 517.825 200.194 518.626 201.035C519.328 201.772 519.829 204.928 519.829 208.084C519.829 215.448 521.532 219.131 525.038 219.551C529.646 220.077 530.147 217.658 529.746 191.987C529.346 169.894 529.245 168.527 527.042 164.844C525.739 162.635 522.934 159.479 520.83 157.69C511.814 150.221 502.798 149.274 492.68 154.85ZM509.31 163.266C517.124 166.423 519.829 170.736 519.829 179.994C519.829 183.887 519.328 187.358 518.827 187.674C517.524 188.516 490.776 188.516 489.875 187.674C489.574 187.253 489.374 183.676 489.374 179.573C489.574 173.156 489.875 171.788 492.48 168.421C496.887 162.74 503.199 160.847 509.31 163.266Z" fill="#3E8446"/>
<path d="M563.206 153.482C556.394 156.638 550.283 164.003 548.881 170.631C547.078 179.468 546.476 213.449 548.079 216.606C549.782 219.867 553.389 220.498 555.994 218.078C557.697 216.5 557.897 214.712 557.997 201.456C558.097 177.574 558.899 170.946 562.305 167.264C567.815 161.267 577.833 160.847 583.743 166.528C588.552 171.052 588.953 173.156 588.953 193.986C588.953 210.714 589.253 214.081 590.656 216.711C592.759 220.393 596.266 220.709 598.37 217.342C600.674 213.765 601.175 205.033 600.073 188.2C598.87 169.368 597.969 166.107 592.359 160.215C584.244 151.588 572.623 148.958 563.206 153.482Z" fill="#3E8446"/>
<path d="M646.255 152.64C644.051 154.955 645.053 158.216 651.665 169.579C655.372 175.996 658.077 181.782 657.876 182.729C657.576 183.781 654.37 189.462 650.663 195.354C646.957 201.351 643.05 208.294 641.847 210.819C639.744 215.343 639.744 215.554 641.547 217.658C645.254 221.971 648.259 219.762 657.275 205.664C660.18 201.035 663.386 196.827 664.288 196.301C666.492 194.828 668.094 196.301 673.805 205.349C676.409 209.452 679.816 214.396 681.418 216.29C684.925 220.498 688.631 220.919 690.234 217.237C691.637 214.081 690.034 210.398 680.417 195.038C676.409 188.726 673.103 182.94 673.103 182.203C673.103 181.467 675.608 176.733 678.714 171.683C681.819 166.633 684.925 161.057 685.626 159.374C688.03 153.272 684.424 149.484 679.214 152.43C678.213 152.956 675.408 156.533 673.103 160.321C668.896 166.843 666.191 169.053 664.087 167.685C663.486 167.369 660.581 163.477 657.576 159.163C651.966 151.273 649.161 149.59 646.255 152.64Z" fill="#3E8446"/>
<path d="M710.07 153.061C708.968 154.534 708.667 159.584 708.667 178.1C708.667 200.088 708.767 201.561 710.871 205.664C713.576 210.924 718.184 215.133 724.195 217.868C736.417 223.444 754.449 215.238 758.356 202.192C758.957 199.878 759.659 189.357 759.959 177.679C760.36 154.955 759.859 152.115 754.95 151.588C750.843 151.062 750.142 154.534 749.841 175.575C749.641 185.675 749.14 195.354 748.739 197.143C745.533 210.293 726.199 212.082 720.188 199.773C718.385 196.09 718.184 193.566 718.184 176.417C718.184 156.007 717.483 152.22 713.576 151.588C712.474 151.378 710.871 152.115 710.07 153.061Z" fill="#3E8446"/>
<path d="M793.519 152.956C788.11 155.376 782.399 160.741 779.995 165.476C777.992 169.473 777.791 171.578 777.491 192.513C777.09 217.658 777.491 220.077 782.099 219.551C785.705 219.13 787.308 215.448 787.308 207.453C787.308 202.613 787.709 200.719 788.911 199.983C791.015 198.721 815.459 199.667 817.162 201.035C817.863 201.666 818.364 204.507 818.364 207.558C818.364 217.237 824.074 223.128 827.781 217.447C830.185 213.87 830.085 178.1 827.681 170.315C825.677 163.792 819.266 156.428 813.054 153.482C807.945 150.957 798.328 150.747 793.519 152.956ZM811.251 164.95C815.96 168.421 817.763 172.104 818.164 179.047C818.464 183.781 818.164 185.991 817.262 186.832C815.158 188.41 789.913 189.462 788.51 187.99C785.405 184.728 788.31 170.21 792.918 165.896C797.426 161.793 806.543 161.267 811.251 164.95Z" fill="#3E8446"/>
<path d="M861.742 153.272C859.337 154.219 855.33 157.164 852.826 159.9C848.618 164.424 848.017 165.686 846.815 172.63C845.212 182.203 845.012 211.871 846.514 216.5C847.516 219.446 848.017 219.867 850.722 219.551C854.93 219.131 855.13 218.184 856.232 192.934C856.833 179.573 857.634 171.052 858.436 169.789C860.339 166.528 863.846 164.108 868.754 162.74C872.761 161.688 873.663 161.793 878.071 164.108C886.386 168.527 886.686 169.263 887.889 194.302C888.991 216.29 889.692 219.762 892.998 219.762C893.599 219.762 895.001 218.71 896.103 217.552C897.806 215.554 898.007 213.66 897.907 195.67C897.706 171.683 896.504 166.002 889.992 159.374C882.679 151.904 871.159 149.379 861.742 153.272Z" fill="#3E8446"/>
<path d="M1012.11 153.903C1002.79 158.427 997.084 165.265 994.179 175.155C987.668 197.669 1002.79 219.762 1024.83 219.762C1042.77 219.762 1059.1 199.036 1055.69 180.73C1051.58 158.532 1029.94 145.171 1012.11 153.903ZM1029.54 163.477C1037.36 165.16 1043.57 172.84 1045.27 183.15C1046.17 187.99 1043.57 196.511 1040.06 200.93C1034.25 208.084 1023.53 210.293 1014.52 206.085C1006.5 202.403 1003.7 197.037 1003.7 185.57C1003.7 176.101 1005.4 171.472 1010.41 167.475C1013.91 164.634 1022.03 161.793 1024.73 162.425C1025.54 162.635 1027.74 163.161 1029.54 163.477Z" fill="#3E8446"/>
<path d="M1093.46 153.272C1085.84 155.902 1077.83 164.739 1075.02 173.576C1072.22 182.309 1072.22 189.147 1075.02 197.669C1082.14 219.972 1109.19 227.021 1125.51 210.819C1127.42 208.926 1130.52 204.191 1132.43 200.299C1138.14 188.831 1137.24 177.048 1129.62 165.265C1122.11 153.482 1106.98 148.537 1093.46 153.272ZM1108.99 163.161C1116.3 164.95 1122.01 170.841 1124.51 179.047C1126.12 184.413 1126.12 185.675 1124.91 190.62C1121.91 203.139 1114.19 208.926 1101.87 207.979C1095.46 207.453 1090.85 204.612 1086.44 198.3C1083.24 193.776 1082.94 180.415 1085.84 173.997C1088.35 168.632 1092.46 165.055 1098.37 163.266C1103.68 161.688 1102.97 161.688 1108.99 163.161Z" fill="#3E8446"/>
<path d="M423.456 154.113C420.15 155.902 419.849 158.953 422.654 161.899C424.157 163.477 425.96 164.003 429.967 164.003C432.873 164.003 435.778 164.529 436.479 165.265C437.381 166.212 437.681 173.366 437.681 191.146C437.681 206.085 438.082 216.5 438.683 217.763C439.384 219.025 440.787 219.762 442.59 219.762C447.9 219.762 448.2 218.499 448.2 191.882C448.2 163.687 448.1 164.003 456.114 164.003C465.531 164.003 468.737 156.533 460.622 153.587C455.613 151.799 426.762 152.114 423.456 154.113Z" fill="#3E8446"/>
<path d="M940.884 154.955L938.079 157.48V186.412C938.079 213.344 938.179 215.448 939.982 217.552C941.084 218.815 942.687 219.762 943.689 219.762C946.894 219.762 948.397 215.554 949.098 204.717C950 192.408 950 192.408 961.921 192.408C971.839 192.408 975.446 190.515 974.344 185.991C973.442 182.414 968.734 180.836 959.417 180.836C949.599 180.836 948.197 179.678 948.798 171.578C949.098 168.316 949.9 165.476 950.701 164.95C951.503 164.424 956.311 164.003 961.42 164.003C973.943 164.003 979.653 161.478 978.15 156.744C977.149 153.482 972.24 152.43 957.513 152.43C944.39 152.43 943.588 152.535 940.884 154.955Z" fill="#3E8446"/>
<path d="M1155.77 153.587C1152.76 155.376 1151.96 161.793 1152.06 183.466C1152.06 206.611 1152.76 213.765 1155.37 216.395C1157.97 219.025 1175.2 218.499 1184.02 215.448C1192.23 212.503 1200.85 203.876 1203.45 195.985C1205.66 189.252 1205.46 179.258 1203.15 173.997C1200.55 168.211 1194.74 161.373 1189.73 158.322C1181.82 153.482 1160.68 150.536 1155.77 153.587ZM1183.42 167.264C1189.13 170.21 1193.84 176.417 1194.74 182.203C1196.14 191.251 1189.43 202.613 1181.31 204.928C1176.11 206.506 1165.69 206.401 1164.18 204.823C1163.38 203.981 1162.98 198.089 1162.98 185.465C1162.98 163.582 1163.08 163.477 1172.4 164.213C1175.91 164.529 1180.61 165.896 1183.42 167.264Z" fill="#3E8446"/>
<path d="M674.205 260.161C673.404 261.108 673.103 265.842 673.304 274.048L673.604 286.567H679.916C686.227 286.567 689.132 284.674 683.622 284.148C677.812 283.622 676.109 282.885 676.109 280.886C676.109 276.994 677.311 275.521 681.218 274.89C686.528 273.943 686.327 271.523 680.917 271.102C677.111 270.787 676.61 270.471 676.309 268.051C675.908 264.369 678.513 261.844 682.721 261.844C686.227 261.844 687.329 260.476 684.524 259.319C681.619 258.162 675.408 258.688 674.205 260.161Z" fill="#3E8446"/>
<path d="M714.979 260.476C708.968 264.474 710.771 271.523 718.986 275.416C724.896 278.361 725.798 281.097 721.59 283.096C719.386 284.148 718.485 284.042 715.98 282.57C712.073 280.15 710.37 281.412 713.276 284.568C716.481 288.145 721.29 287.935 725.297 284.148C730.006 279.729 728.904 276.362 721.39 272.575C715.379 269.524 713.676 266.684 716.682 264.369C717.683 263.633 719.787 263.317 721.791 263.633C725.497 264.264 726.199 263.001 723.594 260.371C721.59 258.267 718.385 258.267 714.979 260.476Z" fill="#3E8446"/>
<path d="M751.544 259.424C750.642 259.74 751.244 261.002 753.247 263.001C756.753 266.683 757.855 271.944 756.353 276.888C755.151 280.781 755.752 284.253 757.655 283.622C758.256 283.411 758.857 280.255 759.058 275.942C759.358 265.947 759.959 264.053 762.764 262.896C767.773 260.897 764.467 258.688 756.753 258.793C754.549 258.793 752.145 259.109 751.544 259.424Z" fill="#3E8446"/>
<path d="M817.062 260.582C814.557 263.527 814.958 264.053 819.165 263.317C822.171 262.791 823.273 263.106 824.876 265L826.879 267.315L820.167 273.732C812.453 281.097 810.55 285.515 814.557 286.567C818.164 287.514 826.879 286.778 826.679 285.515C826.579 284.884 824.775 284.253 822.672 283.937C817.563 283.201 817.362 280.781 822.071 276.994C830.185 270.576 831.287 266.789 826.479 261.739C823.072 258.267 819.466 257.846 817.062 260.582Z" fill="#3E8446"/>
<path d="M858.736 260.792C854.328 263.527 853.226 266.368 853.327 273.837C853.327 279.834 853.627 280.465 856.933 283.622C862.743 289.303 870.758 287.83 875.566 280.15C879.373 274.048 876.869 265.316 870.057 260.897C865.849 258.162 862.844 258.162 858.736 260.792ZM866.851 264.579C867.151 265.526 866.25 267.946 864.747 270.26C860.039 277.204 855.43 278.361 855.43 272.785C855.43 269.103 857.033 266.368 860.239 264.579C863.845 262.475 866.049 262.475 866.851 264.579ZM872.862 270.892C875.366 271.944 874.765 275.731 871.359 280.045C868.754 283.411 867.652 284.042 865.048 283.727C860.339 283.201 860.54 280.36 865.749 274.995C870.558 269.945 870.457 269.945 872.862 270.892Z" fill="#3E8446"/>
<path d="M904.318 259.845C903.316 260.371 902.515 261.634 902.515 262.475C902.515 263.738 903.216 263.948 905.62 263.422C908.826 262.686 913.535 264.474 913.535 266.368C913.535 266.999 910.329 270.681 906.422 274.574C901.112 280.045 899.409 282.359 899.71 284.148C900.01 286.357 900.511 286.567 906.823 286.567C914.035 286.567 916.139 284.779 909.928 283.937C907.824 283.622 906.021 282.885 905.821 282.149C905.52 281.412 907.925 278.361 910.93 275.205C917.542 268.472 918.143 265.526 913.434 261.423C910.229 258.583 907.223 258.057 904.318 259.845Z" fill="#3E8446"/>
<path d="M942.086 261.213C941.084 262.791 940.583 265.421 940.783 267.841L941.084 271.839L945.993 271.944C952.705 272.049 955.51 276.257 952.605 281.938C951.403 284.253 946.694 284.674 943.588 282.675C940.884 280.886 939.882 282.464 942.086 284.989C944.69 288.04 950.601 287.83 953.606 284.463C958.315 279.203 955.209 268.156 948.898 268.156C947.596 268.156 946.293 267.42 945.993 266.578C945.091 264.159 947.496 261.844 950.701 261.844C952.204 261.844 953.707 261.423 954.007 260.897C954.809 259.635 952.204 258.688 947.496 258.688C944.49 258.688 943.288 259.214 942.086 261.213Z" fill="#3E8446"/>
</svg>
