<svg xmlns="http://www.w3.org/2000/svg" viewBox="0 0 1896 822" preserveAspectRatio="xMidYMid meet">
    <g transform="translate(0.000000,822.000000) scale(0.100000,-0.100000)"
        fill="#3e8446" stroke="none">
        <path
            d="M1505 7470 c-270 -61 -487 -219 -565 -410 -22 -54 -24 -209 -5 -288
30 -120 109 -246 217 -349 64 -60 157 -122 203 -134 49 -14 74 -48 87 -119
l12 -63 -29 -23 c-17 -13 -64 -48 -105 -79 -169 -126 -263 -222 -366 -376 -66
-99 -277 -524 -295 -592 -16 -67 -7 -210 19 -267 10 -25 33 -74 50 -110 42
-91 60 -136 83 -205 22 -67 79 -182 148 -299 120 -204 350 -429 566 -554 52
-30 203 -102 214 -102 4 0 21 -7 37 -15 43 -21 255 -72 361 -86 97 -12 288 -8
463 10 127 13 309 61 407 106 72 33 211 111 223 125 3 4 28 21 55 40 77 52
239 214 319 320 114 150 181 268 238 415 50 128 65 156 112 220 65 86 85 135
92 228 12 137 -24 241 -120 351 -29 33 -80 112 -112 174 -33 62 -92 156 -131
209 -40 54 -73 103 -73 110 0 7 13 27 28 45 35 41 56 77 82 147 17 44 21 77
21 172 0 231 -63 352 -289 548 -45 40 -100 98 -121 129 -72 106 -169 184 -303
246 -87 40 -138 54 -343 92 -143 27 -240 69 -323 141 -162 140 -296 212 -457
244 -118 24 -293 24 -400 -1z m416 -126 c40 -14 83 -28 94 -31 11 -3 39 -19
62 -35 23 -15 44 -28 47 -28 3 0 62 -42 130 -92 106 -79 162 -114 257 -159 10
-4 70 -17 135 -29 258 -46 338 -74 448 -157 60 -46 86 -73 166 -178 19 -26 71
-75 115 -110 196 -157 278 -326 255 -525 -14 -124 -79 -205 -183 -229 -65 -16
-311 -11 -328 6 -9 9 -9 43 0 145 13 162 17 178 44 178 21 0 77 -38 115 -80
37 -39 105 -80 133 -80 34 0 49 17 49 59 0 41 -30 84 -112 161 -32 30 -58 58
-58 63 0 4 13 7 29 7 35 0 99 -35 171 -95 78 -64 85 -60 51 31 -61 159 -188
309 -316 371 -92 45 -152 56 -269 50 -61 -3 -129 -11 -151 -18 -22 -6 -103
-12 -180 -13 -117 -1 -148 2 -190 18 -77 30 -169 94 -291 202 -113 100 -165
146 -241 207 -23 19 -50 42 -59 51 -47 47 -66 -14 -39 -123 39 -152 49 -181
126 -361 37 -86 162 -205 269 -257 85 -42 168 -63 245 -63 56 0 148 -25 220
-59 107 -51 118 -54 235 -60 l115 -6 -1 -146 c-2 -175 -9 -194 -62 -184 -21 3
-68 18 -107 31 -38 14 -101 34 -140 46 -38 11 -104 31 -145 44 -42 12 -102 28
-135 34 -33 5 -89 17 -125 25 -110 26 -252 55 -319 65 -35 6 -67 13 -72 15 -4
3 -73 10 -152 14 -79 5 -153 14 -164 20 -25 13 -43 60 -43 112 0 21 -7 75 -15
119 -8 44 -22 116 -30 160 -21 111 -20 137 6 151 17 8 31 8 60 0 29 -9 187
-29 242 -31 21 0 -1 53 -72 178 -175 306 -189 350 -129 418 17 20 56 49 85 66
54 30 75 66 31 53 -63 -19 -158 -75 -204 -121 -73 -72 -94 -122 -94 -228 0
-47 -4 -87 -8 -90 -17 -10 -70 55 -106 130 -21 41 -42 74 -48 72 -18 -6 -38
-88 -38 -153 0 -74 23 -151 54 -185 28 -30 56 -72 56 -82 0 -12 -47 -10 -91 4
-22 6 -42 8 -47 4 -10 -11 56 -65 115 -96 67 -34 83 -56 80 -105 -2 -35 -5
-40 -28 -43 -49 -6 -207 138 -265 242 -64 115 -67 125 -68 246 l-1 115 37 61
c93 151 294 271 513 305 92 14 254 1 336 -27z m-154 -1346 c9 -10 15 -19 12
-22 -2 -2 -38 -7 -79 -11 -83 -7 -119 6 -107 40 6 15 18 17 82 13 53 -2 80 -8
92 -20z m-298 -69 c17 -50 13 -93 -13 -131 -59 -87 -55 -268 9 -399 44 -91 80
-135 144 -178 55 -36 56 -38 74 -111 9 -41 33 -125 53 -187 20 -61 34 -119 32
-129 -2 -10 -29 -33 -62 -51 -72 -41 -117 -78 -135 -111 -7 -14 -16 -63 -19
-109 -5 -78 -7 -85 -31 -97 -14 -8 -131 -49 -259 -92 -259 -88 -252 -87 -288
-13 -56 117 -74 159 -85 205 -6 27 -38 106 -71 176 -73 156 -85 219 -58 312
10 35 30 86 44 112 41 78 83 165 102 214 10 25 24 52 31 61 7 8 13 21 13 28 0
7 17 37 38 68 20 30 44 65 52 78 80 124 355 385 405 385 7 0 18 -14 24 -31z
m641 -49 c91 -6 199 -17 240 -26 159 -33 228 -50 300 -74 l75 -25 5 -86 c5
-79 8 -90 44 -142 36 -52 38 -59 27 -84 -7 -14 -16 -76 -22 -137 -17 -199 -44
-313 -91 -379 -78 -112 -206 -225 -303 -267 -27 -12 -65 -28 -83 -36 -18 -8
-58 -14 -89 -14 -45 0 -68 7 -117 34 -132 75 -265 258 -307 426 -13 52 -55
283 -69 380 -14 95 -35 222 -45 260 -5 21 5 36 67 98 40 40 80 77 88 82 8 5
38 7 65 5 28 -3 124 -10 215 -15z m-522 -146 c12 -8 22 -24 22 -36 0 -16 -4
-19 -22 -14 -13 3 -31 6 -40 6 -12 0 -18 8 -18 23 0 40 20 48 58 21z m-28 -84
c31 -16 43 -49 45 -120 1 -36 9 -81 18 -100 24 -53 27 -74 16 -90 -8 -12 -15
-8 -44 24 -19 22 -39 53 -44 70 -6 17 -19 58 -30 90 -21 59 -27 117 -14 129 9
10 31 9 53 -3z m1964 -25 c33 -33 139 -170 163 -210 6 -11 30 -57 53 -102 24
-44 69 -114 101 -155 88 -111 112 -166 113 -263 0 -90 -18 -136 -79 -203 -36
-40 -70 -108 -111 -224 -58 -160 -123 -268 -161 -268 -18 0 -461 149 -495 166
-31 16 -35 33 -41 175 -5 118 -27 165 -92 198 -23 11 -48 21 -54 21 -27 0 -91
42 -96 63 -12 45 27 218 56 254 6 7 18 13 26 13 66 0 210 125 259 226 24 49
29 75 32 152 2 50 -1 106 -7 122 -19 56 -8 63 83 56 45 -3 99 -2 121 3 75 16
92 13 129 -24z m-446 -30 c29 -32 32 -40 32 -98 0 -51 -6 -76 -31 -126 -35
-70 -116 -157 -156 -167 -37 -10 -77 7 -81 34 -3 18 3 23 27 28 35 7 78 52 87
90 4 16 -2 44 -18 79 l-25 55 -28 -30 c-38 -39 -55 -39 -55 3 0 35 30 98 63
135 48 52 134 50 185 -3z m-324 -827 c8 -33 7 -311 -2 -324 -11 -17 -56 -37
-180 -80 -175 -60 -212 -102 -212 -241 0 -86 -13 -118 -46 -111 -16 3 -20 17
-30 108 -14 136 -18 151 -50 184 -27 26 -104 66 -129 66 -7 0 -42 13 -77 28
-34 16 -74 32 -88 35 -14 3 -40 20 -58 36 l-33 31 5 92 c3 51 6 96 6 101 0 4
9 7 19 7 20 0 121 -99 151 -148 53 -86 151 -132 240 -113 129 28 302 155 419
309 36 47 56 53 65 20z m124 -130 c16 -16 15 -34 -4 -64 -21 -31 -44 -16 -44
31 0 45 21 60 48 33z m-1088 -49 c0 -32 -16 -35 -34 -7 -7 12 -6 21 3 32 18
22 31 11 31 -25z m-50 -104 c64 -70 186 -140 329 -191 102 -36 114 -48 119
-127 5 -71 -6 -97 -38 -97 -16 0 -198 78 -260 112 -63 34 -139 90 -179 131
-41 43 -44 49 -49 116 -7 106 16 123 78 56z m1226 9 c4 -14 4 -58 1 -97 -5
-71 -5 -72 -53 -116 -106 -95 -319 -201 -440 -218 -35 -5 -44 -2 -53 15 -15
28 -3 107 21 137 20 25 98 65 127 65 9 0 29 7 45 15 15 8 32 15 37 15 5 0 44
16 86 36 60 28 93 52 143 105 36 37 68 68 72 68 4 1 11 -11 14 -25z m144 -229
c17 -9 30 -22 30 -29 0 -15 -63 -68 -94 -80 -10 -3 -16 -9 -13 -13 7 -7 133
53 142 67 16 26 155 -11 308 -80 58 -26 61 -51 15 -107 -18 -22 -49 -59 -68
-83 -65 -81 -255 -235 -365 -296 -133 -74 -214 -101 -229 -75 -4 5 -13 47 -21
93 -16 93 -35 139 -69 166 -20 15 -86 43 -243 103 -13 5 -23 17 -23 27 0 20
21 32 115 64 115 40 263 116 360 187 54 39 104 71 112 71 8 0 27 -7 43 -15z
m-990 -268 c52 -19 138 -51 190 -72 52 -21 131 -52 175 -68 130 -48 163 -65
210 -108 24 -22 49 -56 55 -75 15 -44 5 -101 -20 -114 -32 -17 -47 -2 -53 52
-7 60 -25 83 -87 109 -25 11 -57 26 -72 34 -14 8 -34 15 -43 15 -9 0 -29 7
-43 14 -33 18 -81 38 -147 61 -27 9 -72 28 -100 40 -27 13 -77 32 -110 43 -91
31 -150 65 -153 89 -6 41 45 36 198 -20z" />
        <path
            d="M1920 5786 c-55 -15 -88 -32 -117 -59 -35 -31 -28 -56 12 -47 6 1 46
8 89 16 86 15 126 35 126 63 0 10 -11 23 -25 29 -30 14 -27 14 -85 -2z" />
        <path
            d="M2343 5779 c-20 -21 -15 -57 10 -73 12 -7 53 -16 91 -20 37 -3 83
-11 102 -18 79 -28 61 42 -23 89 -50 27 -162 41 -180 22z" />
        <path
            d="M1909 5607 c-19 -13 -34 -31 -34 -42 0 -18 6 -20 47 -17 26 2 65 -2
85 -7 45 -13 59 2 35 35 -16 22 -69 54 -90 54 -5 0 -24 -10 -43 -23z" />
        <path
            d="M2432 5590 c-63 -38 -54 -76 14 -59 32 8 49 7 78 -5 21 -9 42 -13 47
-11 15 10 -13 55 -46 75 -40 25 -52 25 -93 0z" />
        <path
            d="M2124 5523 c-4 -16 -22 -75 -40 -133 -74 -229 -53 -296 89 -293 104
3 177 48 177 109 0 47 -24 50 -66 9 -29 -29 -42 -35 -78 -35 -77 0 -101 60
-72 183 18 76 21 187 6 187 -5 0 -13 -12 -16 -27z" />
        <path
            d="M2005 5030 c-11 -18 57 -129 97 -158 41 -30 86 -52 106 -52 61 0 188
95 227 170 19 37 8 40 -65 23 -84 -20 -216 -17 -290 7 -73 23 -67 23 -75 10z
m319 -98 c3 -5 -1 -18 -9 -29 -17 -24 -95 -39 -145 -28 -31 7 -56 37 -45 55 7
12 192 13 199 2z" />
        <path d="M2967 5534 c-16 -16 -5 -25 26 -22 17 2 31 8 30 13 -3 12 -46 19 -56
9z" />
        <path
            d="M5643 6298 c-25 -28 -53 -82 -53 -103 0 -26 27 -28 59 -6 23 17 35
19 54 12 14 -6 28 -15 32 -20 10 -16 42 -13 49 5 13 33 -61 134 -98 134 -12 0
-32 -10 -43 -22z" />
        <path
            d="M8618 6291 c-71 -83 -55 -156 22 -100 l28 22 32 -23 c73 -52 83 26
12 103 -33 35 -64 34 -94 -2z" />
        <path
            d="M5569 6017 c-120 -62 -149 -139 -149 -399 0 -160 1 -168 23 -194 44
-51 87 -8 87 86 0 75 9 80 159 80 85 0 131 -4 139 -12 7 -7 12 -37 12 -67 0
-70 17 -105 52 -109 46 -5 51 18 47 262 -4 210 -5 223 -27 258 -13 21 -41 51
-62 68 -90 71 -180 80 -281 27z m166 -80 c78 -30 105 -71 105 -159 0 -37 -5
-70 -10 -73 -13 -8 -280 -8 -289 0 -3 4 -5 38 -5 77 2 61 5 74 31 106 44 54
107 72 168 49z" />
        <path
            d="M6273 6030 c-68 -30 -129 -100 -143 -163 -18 -84 -24 -407 -8 -437
17 -31 53 -37 79 -14 17 15 19 32 20 158 1 227 9 290 43 325 55 57 155 61 214
7 48 -43 52 -63 52 -261 0 -159 3 -191 17 -216 21 -35 56 -38 77 -6 23 34 28
117 17 277 -12 179 -21 210 -77 266 -81 82 -197 107 -291 64z" />
        <path
            d="M7102 6038 c-22 -22 -12 -53 54 -161 37 -61 64 -116 62 -125 -3 -10
-35 -64 -72 -120 -37 -57 -76 -123 -88 -147 -21 -43 -21 -45 -3 -65 37 -41 67
-20 157 114 29 44 61 84 70 89 22 14 38 0 95 -86 26 -39 60 -86 76 -104 35
-40 72 -44 88 -9 14 30 -2 65 -98 211 -40 60 -73 115 -73 122 0 7 25 52 56
100 31 48 62 101 69 117 24 58 -12 94 -64 66 -10 -5 -38 -39 -61 -75 -42 -62
-69 -83 -90 -70 -6 3 -35 40 -65 81 -56 75 -84 91 -113 62z" />
        <path
            d="M7739 6034 c-11 -14 -14 -62 -14 -238 0 -209 1 -223 22 -262 27 -50
73 -90 133 -116 122 -53 302 25 341 149 6 22 13 122 16 233 4 216 -1 243 -50
248 -41 5 -48 -28 -51 -228 -2 -96 -7 -188 -11 -205 -32 -125 -225 -142 -285
-25 -18 35 -20 59 -20 222 0 194 -7 230 -46 236 -11 2 -27 -5 -35 -14z" />
        <path
            d="M8572 6035 c-54 -23 -111 -74 -135 -119 -20 -38 -22 -58 -25 -257 -4
-239 0 -262 46 -257 36 4 52 39 52 115 0 46 4 64 16 71 21 12 265 3 282 -10 7
-6 12 -33 12 -62 0 -92 57 -148 94 -94 24 34 23 374 -1 448 -20 62 -84 132
-146 160 -51 24 -147 26 -195 5z m177 -114 c47 -33 65 -68 69 -134 3 -45 0
-66 -9 -74 -21 -15 -273 -25 -287 -11 -31 31 -2 169 44 210 45 39 136 44 183
9z" />
        <path
            d="M9253 6032 c-24 -9 -64 -37 -89 -63 -42 -43 -48 -55 -60 -121 -16
-91 -18 -373 -3 -417 10 -28 15 -32 42 -29 42 4 44 13 55 253 6 127 14 208 22
220 19 31 54 54 103 67 40 10 49 9 93 -13 83 -42 86 -49 98 -287 11 -209 18
-242 51 -242 6 0 20 10 31 21 17 19 19 37 18 208 -2 228 -14 282 -79 345 -73
71 -188 95 -282 58z" />
        <path
            d="M10754 6026 c-93 -43 -150 -108 -179 -202 -65 -214 86 -424 306 -424
179 0 342 197 308 371 -41 211 -257 338 -435 255z m174 -91 c78 -16 140 -89
157 -187 9 -46 -17 -127 -52 -169 -58 -68 -165 -89 -255 -49 -80 35 -108 86
-108 195 0 90 17 134 67 172 35 27 116 54 143 48 8 -2 30 -7 48 -10z" />
        <path
            d="M11566 6032 c-76 -25 -156 -109 -184 -193 -28 -83 -28 -148 0 -229
71 -212 341 -279 504 -125 19 18 50 63 69 100 57 109 48 221 -28 333 -75 112
-226 159 -361 114z m155 -94 c73 -17 130 -73 155 -151 16 -51 16 -63 4 -110
-30 -119 -107 -174 -230 -165 -64 5 -110 32 -154 92 -32 43 -35 170 -6 231 25
51 66 85 125 102 53 15 46 15 106 1z" />
        <path
            d="M4878 6024 c-33 -17 -36 -46 -8 -74 15 -15 33 -20 73 -20 29 0 58 -5
65 -12 9 -9 12 -77 12 -246 0 -142 4 -241 10 -253 7 -12 21 -19 39 -19 53 0
56 12 56 265 0 268 -1 265 79 265 94 0 126 71 45 99 -50 17 -338 14 -371 -5z" />
        <path
            d="M10043 6016 l-28 -24 0 -275 c0 -256 1 -276 19 -296 11 -12 27 -21
37 -21 32 0 47 40 54 143 9 117 9 117 128 117 99 0 135 18 124 61 -9 34 -56
49 -149 49 -98 0 -112 11 -106 88 3 31 11 58 19 63 8 5 56 9 107 9 125 0 182
24 167 69 -10 31 -59 41 -206 41 -131 0 -139 -1 -166 -24z" />
        <path
            d="M12188 6029 c-30 -17 -38 -78 -37 -284 0 -220 7 -288 33 -313 26 -25
198 -20 286 9 82 28 168 110 194 185 22 64 20 159 -3 209 -26 55 -84 120 -134
149 -79 46 -290 74 -339 45z m276 -130 c57 -28 104 -87 113 -142 14 -86 -53
-194 -134 -216 -52 -15 -156 -14 -171 1 -8 8 -12 64 -12 184 0 208 1 209 94
202 35 -3 82 -16 110 -29z" />
        <path
            d="M7381 5016 c-8 -9 -11 -54 -9 -132 l3 -119 63 0 c63 0 92 18 37 23
-58 5 -75 12 -75 31 0 37 12 51 51 57 53 9 51 32 -3 36 -38 3 -43 6 -46 29 -4
35 22 59 64 59 35 0 46 13 18 24 -29 11 -91 6 -103 -8z" />
        <path
            d="M7788 5013 c-60 -38 -42 -105 40 -142 59 -28 68 -54 26 -73 -22 -10
-31 -9 -56 5 -39 23 -56 11 -27 -19 32 -34 80 -32 120 4 47 42 36 74 -39 110
-60 29 -77 56 -47 78 10 7 31 10 51 7 37 -6 44 6 18 31 -20 20 -52 20 -86 -1z" />
        <path
            d="M8153 5023 c-9 -3 -3 -15 17 -34 35 -35 46 -85 31 -132 -12 -37 -6
-70 13 -64 6 2 12 32 14 73 3 95 9 113 37 124 50 19 17 40 -60 39 -22 0 -46
-3 -52 -6z" />
        <path
            d="M8807 5012 c-25 -28 -21 -33 21 -26 30 5 41 2 57 -16 l20 -22 -67
-61 c-77 -70 -96 -112 -56 -122 36 -9 123 -2 121 10 -1 6 -19 12 -40 15 -51 7
-53 30 -6 66 81 61 92 97 44 145 -34 33 -70 37 -94 11z" />
        <path
            d="M9223 5010 c-44 -26 -55 -53 -54 -124 0 -57 3 -63 36 -93 58 -54 138
-40 186 33 38 58 13 141 -55 183 -42 26 -72 26 -113 1z m81 -36 c3 -9 -6 -32
-21 -54 -47 -66 -93 -77 -93 -24 0 35 16 61 48 78 36 20 58 20 66 0z m60 -60
c25 -10 19 -46 -15 -87 -26 -32 -37 -38 -63 -35 -47 5 -45 32 7 83 48 48 47
48 71 39z" />
        <path
            d="M9678 5019 c-10 -5 -18 -17 -18 -25 0 -12 7 -14 31 -9 32 7 79 -10
79 -28 0 -6 -32 -41 -71 -78 -53 -52 -70 -74 -67 -91 3 -21 8 -23 71 -23 72 0
93 17 31 25 -21 3 -39 10 -41 17 -3 7 21 36 51 66 66 64 72 92 25 131 -32 27
-62 32 -91 15z" />
        <path
            d="M10055 5006 c-10 -15 -15 -40 -13 -63 l3 -38 49 -1 c67 -1 95 -41 66
-95 -12 -22 -59 -26 -90 -7 -27 17 -37 2 -15 -22 26 -29 85 -27 115 5 47 50
16 155 -47 155 -13 0 -26 7 -29 15 -9 23 15 45 47 45 15 0 30 4 33 9 8 12 -18
21 -65 21 -30 0 -42 -5 -54 -24z" />
    </g>
</svg>